<svg width="17" height="18" viewBox="0 0 17 18" fill="none" xmlns="http://www.w3.org/2000/svg">
<path fill-rule="evenodd" clip-rule="evenodd" d="M11.3835 0.0177453C11.3966 -0.000947982 11.4223 -0.00549094 11.441 0.00759823L12.7191 0.902525C12.7378 0.915613 12.7424 0.941376 12.7293 0.960069L10.9504 3.50055C11.8152 3.77684 12.4044 4.07486 12.4044 4.07486C12.4044 4.07486 10.9642 6.55205 8.52161 6.55205C6.07898 6.55205 4.34327 4.24326 4.34327 4.24326C4.34327 4.24326 4.95871 3.85049 5.87102 3.51363L3.91984 1.18833C3.90518 1.17084 3.90747 1.14478 3.92494 1.13011L5.12015 0.1272C5.13766 0.112532 5.16371 0.114812 5.17837 0.132293L7.64889 3.07654C7.86042 3.05261 8.07593 3.03923 8.29341 3.03923C8.60598 3.03923 8.91817 3.063 9.22295 3.10332L11.3835 0.0177453ZM11.8667 6.66937C12.5186 6.20383 13.5049 4.98875 13.5049 4.98875C13.5049 4.98875 16.0244 6.98528 16.0244 11.2187C16.0244 15.452 11.6686 17.9999 11.6686 17.9999C11.6686 17.9999 9.58755 15.8983 9.07666 13.2341C8.5658 10.5699 9.83238 7.6116 9.83238 7.6116C9.83238 7.6116 11.2149 7.13491 11.8667 6.66937ZM4.8466 6.66937C4.19477 6.20383 3.20842 4.98875 3.20842 4.98875C3.20842 4.98875 0.688965 6.98528 0.688965 11.2187C0.688965 15.452 5.04471 17.9999 5.04471 17.9999C5.04471 17.9999 7.12579 15.8983 7.63669 13.2341C8.14754 10.5699 6.88096 7.6116 6.88096 7.6116C6.88096 7.6116 5.49847 7.13491 4.8466 6.66937Z" fill="white"/>
</svg>
