<svg width="19" height="18" viewBox="0 0 19 18" fill="none" xmlns="http://www.w3.org/2000/svg">
<path fill-rule="evenodd" clip-rule="evenodd" d="M8.29938 15.9207C8.64135 15.973 8.99158 16.0002 9.3482 16.0002C13.1452 16.0002 16.2232 12.9221 16.2232 9.12516C16.2232 5.32816 13.1452 2.2501 9.3482 2.2501C9.09346 2.2501 8.84191 2.26396 8.59438 2.29096C10.4779 3.71792 11.7232 6.1898 11.7232 9.00014C11.7232 11.9547 10.3468 14.5352 8.29938 15.9207ZM9.22319 18.0002C14.1938 18.0002 18.2232 13.9707 18.2232 9.00014C18.2232 4.02955 14.1938 9.15527e-05 9.22319 9.15527e-05C4.25259 9.15527e-05 0.223145 4.02955 0.223145 9.00014C0.223145 13.9707 4.25259 18.0002 9.22319 18.0002Z" fill="white"/>
</svg>
