<svg width="18" height="18" viewBox="0 0 18 18" fill="none" xmlns="http://www.w3.org/2000/svg">
<path fill-rule="evenodd" clip-rule="evenodd" d="M2.74895 1.49636C2.96679 0.636289 3.74597 -9.15527e-05 4.67374 -9.15527e-05C5.36967 -9.15527e-05 5.98199 0.357966 6.3365 0.899913H6.91704C7.27771 0.529772 7.78161 0.29991 8.33922 0.29991C9.15675 0.29991 9.8589 0.794029 10.1633 1.49992H10.6493C10.9539 1.30978 11.3137 1.19991 11.6992 1.19991C12.5168 1.19991 13.2189 1.69403 13.5233 2.39992H14.845C14.8563 2.39992 14.8669 2.40296 14.876 2.40827C14.9363 2.40275 14.9975 2.39992 15.0592 2.39992C16.1558 2.39992 17.0447 3.28884 17.0447 4.38539V10.3389L17.0447 10.35L17.0447 10.361V10.4468C17.0447 10.4831 17.0437 10.5192 17.0417 10.5552C16.9223 14.6854 13.2085 18 8.64466 18C4.00545 18 0.244629 14.575 0.244629 10.35C0.244629 8.31057 1.1209 6.45755 2.54926 5.08617C2.5457 7.07437 2.57928 9.12983 2.73408 9.09456C3.14859 9.00006 2.82473 2.84194 2.74895 1.49636Z" fill="white"/>
</svg>
