<svg width="15" height="18" viewBox="0 0 15 18" fill="none" xmlns="http://www.w3.org/2000/svg">
<path fill-rule="evenodd" clip-rule="evenodd" d="M10.8546 13.9009C11.077 13.0877 10.6453 11.4159 10.6453 11.4159C10.6453 11.4159 10.3322 12.7778 9.84296 13.2812C9.42559 13.7105 8.91423 14.0083 8.18087 14.0866C8.78046 13.7954 9.19281 13.1881 9.19281 12.4862C9.19281 11.5009 8.38028 10.7022 7.37797 10.7022C6.37566 10.7022 5.56309 11.5009 5.56309 12.4862C5.56309 12.7553 5.62373 13.0105 5.73226 13.2393C5.10535 12.7399 5.00677 11.9391 5.00677 11.9391C5.00677 11.9391 4.30674 14.8455 6.23563 16.2127C8.16449 17.5798 11.9431 16.4047 11.9431 16.4047C11.9431 16.4047 6.53569 20.2094 2.52877 16.0685C-0.922861 12.5013 1.62789 7.80505 1.62789 7.80505C1.62789 7.80505 1.51773 8.24071 1.51773 8.74643C1.51773 9.25216 1.79193 9.63694 1.79193 9.63694C1.79193 9.63694 2.60984 7.91291 3.24638 7.21178C3.84882 6.54824 4.60402 6.01007 5.25631 5.54523C5.75842 5.18741 6.19956 4.87304 6.46302 4.57839C7.91417 2.95577 7.0244 0.000213623 7.0244 0.000213623C7.0244 0.000213623 8.66023 1.44233 9.11691 3.30484C9.29101 4.0148 9.179 4.82259 9.07887 5.54495C8.91631 6.71763 8.78493 7.6652 9.95933 7.60371C11.8571 7.50432 10.208 4.57839 10.208 4.57839C10.208 4.57839 14.513 6.84106 14.1914 10.7983C13.8697 14.7556 9.48581 15.6553 9.48581 15.6553C9.48581 15.6553 10.6322 14.7141 10.8546 13.9009Z" fill="white"/>
</svg>
