<svg width="17" height="18" viewBox="0 0 17 18" fill="none" xmlns="http://www.w3.org/2000/svg">
<path fill-rule="evenodd" clip-rule="evenodd" d="M3.48357 15.4919C3.42178 15.4337 3.36068 15.3745 3.30029 15.3141C0.112143 12.126 0.112144 6.95697 3.30029 3.76884C6.48842 0.580685 16.6471 0.367401 16.6471 0.367401C16.6471 0.367401 18.0337 12.126 14.8456 15.3141C12.0141 18.1456 7.62018 18.4624 4.43912 16.2644L7.0023 13.1189L11.0998 12.2343L7.75504 11.8999L9.88066 9.73563L12.3003 9.20557L10.387 8.63896L12.3003 5.18744L9.57881 8.24L8.52788 6.757L8.89783 9.20557L7.0023 11.3425L6.12364 8.63892V12.2343L3.48357 15.4919Z" fill="white"/>
</svg>
