<svg width="19" height="14" viewBox="0 0 19 14" fill="none" xmlns="http://www.w3.org/2000/svg">
<path fill-rule="evenodd" clip-rule="evenodd" d="M4.37503 13.46C4.37014 13.46 4.36673 13.4552 4.36835 13.4506L8.96382 0.465496C8.96484 0.462673 8.96751 0.460785 8.9705 0.460785H13.8763C13.8793 0.460785 13.882 0.462687 13.883 0.465528L18.4103 13.4506C18.4119 13.4552 18.4085 13.46 18.4036 13.46H4.51312H4.37503ZM0.417722 13.5108C0.412786 13.5108 0.409369 13.5059 0.4111 13.5013L3.83322 4.36512C3.83425 4.36234 3.83689 4.36051 3.83984 4.36051H6.81327C6.81819 4.36051 6.8216 4.3654 6.81991 4.37001L3.51082 13.5062C3.50981 13.509 3.50715 13.5108 3.50417 13.5108H0.417722Z" fill="white"/>
</svg>
