<svg width="19" height="16" viewBox="0 0 19 16" fill="none" xmlns="http://www.w3.org/2000/svg">
<path fill-rule="evenodd" clip-rule="evenodd" d="M14.7144 7.60529C14.7134 7.60389 14.713 7.60213 14.7132 7.60041L15.8616 0.904293C15.8621 0.90121 15.8648 0.898956 15.8679 0.898956H16.2314C16.2342 0.898956 16.2366 0.900774 16.2375 0.903446L18.8246 9.09501C18.8255 9.09754 18.8246 9.10036 18.8225 9.10201L16.9149 10.5913C16.9121 10.5936 16.908 10.593 16.9058 10.5901L14.7144 7.60529ZM0.787598 12.0443C0.787598 12.0471 0.789383 12.0496 0.792024 12.0504L4.72424 13.3361C4.72614 13.3368 4.72825 13.3365 4.7299 13.3353L13.5193 7.26733C13.5208 7.26631 13.5218 7.26473 13.522 7.26298L14.4646 0.938627C14.4652 0.934746 14.4622 0.931258 14.4582 0.931258H6.673C6.67106 0.931258 6.66927 0.932109 6.66804 0.933582L0.789075 8.02566C0.78812 8.02682 0.787598 8.02826 0.787598 8.02977V12.0443ZM6.36281 13.6637L10.6587 15.0709C10.6606 15.0716 10.6628 15.0713 10.6644 15.0701L15.7789 11.4014C15.7818 11.3994 15.7825 11.3955 15.7806 11.3926L13.8633 8.53947C13.8613 8.53648 13.8573 8.53571 13.8543 8.53775L6.36281 13.6637Z" fill="white"/>
</svg>
