<svg width="19" height="16" viewBox="0 0 19 16" fill="none" xmlns="http://www.w3.org/2000/svg">
<path fill-rule="evenodd" clip-rule="evenodd" d="M0.530605 7.94871C0.528211 7.94464 0.52821 7.93957 0.530602 7.93546L5.05678 0.20225C5.05914 0.198238 5.06346 0.19577 5.0681 0.19577H14.0392C14.0439 0.19577 14.0482 0.198259 14.0506 0.202306L18.5271 7.93553C18.5295 7.93957 18.5295 7.9446 18.5271 7.94864L14.0506 15.6732C14.0482 15.6772 14.0439 15.6797 14.0392 15.6797H5.0681C5.06346 15.6797 5.05914 15.6773 5.05678 15.6733L0.530605 7.94871ZM13.699 7.93775C13.699 10.2401 11.8326 12.1065 9.53026 12.1065C7.22794 12.1065 5.36152 10.2401 5.36152 7.93775C5.36152 5.63539 7.22794 3.769 9.53026 3.769C11.8326 3.769 13.699 5.63539 13.699 7.93775Z" fill="white"/>
</svg>
