<svg width="12" height="18" viewBox="0 0 12 18" fill="none" xmlns="http://www.w3.org/2000/svg">
<path fill-rule="evenodd" clip-rule="evenodd" d="M11.8421 12.1824C11.8421 15.3951 9.22787 17.9994 6.00307 17.9994C2.77828 17.9994 0.164078 15.3951 0.164078 12.1824C0.164078 9.05782 5.68722 0.476449 5.99013 0.00816157C5.99706 -0.00251714 6.00912 -0.00251705 6.01601 0.00816168C6.31892 0.476449 11.8421 9.05782 11.8421 12.1824ZM5.02973 16.1345C2.06674 15.4862 2.57377 12.204 2.57377 12.204C2.57377 12.204 3.38286 14.1854 5.34631 14.8272C7.30973 15.469 9.68251 14.5277 9.68251 14.5277C9.68251 14.5277 7.99271 16.7828 5.02973 16.1345Z" fill="white"/>
</svg>
